<?xml version="1.0" encoding="utf-8"?>
<!-- Generator: Adobe Illustrator 26.0.2, SVG Export Plug-In . SVG Version: 6.00 Build 0)  -->
<svg version="1.1" id="Layer_1" xmlns="http://www.w3.org/2000/svg" xmlns:xlink="http://www.w3.org/1999/xlink" x="0px" y="0px"
	 viewBox="0 0 60 60" style="enable-background:new 0 0 60 60;" xml:space="preserve">
<style type="text/css">
	.st0{fill:#F6D84F;}
	.st1{fill:#B73651;}
	.st2{fill:#F48120;}
	.st3{fill:#1A1F71;}
</style>
<circle class="st0" cx="30" cy="30" r="29.8"/>
<g>
	<path class="st1" d="M35.2,17.8c0,0,0.2,0,0.5,0l-0.1-0.1L35.2,17.8z"/>
	<path class="st2" d="M19.1,30.5c-1.2-0.2-2.4-0.4-3.7-0.6c-1.3-0.2-2.5-0.4-3.7-0.6c-1.2-0.2-2.4-0.5-3.6-0.8C7,28.2,6,27.8,5,27.4
		c-0.7-0.3-1.3-0.7-1.8-1.2c-0.5-0.4-0.8-0.9-1-1.6c-0.1-0.3-0.2-0.7-0.1-1c0,0,0,0,0-0.1c0,0,0,0,0,0.1c0,0.2-0.1,0.3-0.1,0.5
		c-0.2,1,0,2,0.4,2.9c0.2,0.6,0.6,1.1,1,1.5c0.7,0.9,1.6,1.5,2.6,2c1.2,0.6,2.4,1,3.6,1.3c1.5,0.4,3.1,0.6,4.6,0.8
		c1.4,0.1,2.8,0.2,4.2,0.3c0.3,0,0.7,0,1,0c0,0,0,0,0.1,0c0,0,0,0-0.1,0c-0.5,0.1-1.1,0.2-1.6,0.2c-1.6,0.2-3.2,0.2-4.7,0.1
		c-1-0.1-2-0.2-2.9-0.4c-1-0.2-2-0.5-2.9-0.8c-1.1-0.4-2.2-1-3.2-1.7c-0.4-0.3-0.8-0.6-1.2-0.9c0,0-0.1,0-0.1,0c0,0,0,0.1,0,0.1
		c0.3,0.4,0.5,0.7,0.8,1.1c0.5,0.6,1,1.1,1.6,1.5c1,0.8,2.2,1.5,3.4,2c1.3,0.6,2.6,0.9,4,1.2c1.4,0.3,2.7,0.4,4.1,0.4
		c1.3,0,2.5,0,3.8-0.2c0,0,0,0,0.1,0c0,0,0,0,0,0c0,0,0,0,0,0c0,0,0,0-0.1,0c-2.1,0.5-4.3,0.8-6.4,0.7c-1.7,0-3.4-0.3-5-0.8
		c-1.2-0.4-2.4-1-3.5-1.7c-0.1-0.1-0.2-0.1-0.2-0.2c0.1,0.1,0.1,0.2,0.2,0.2c0.6,0.8,1.4,1.4,2.2,2c1.3,0.9,2.7,1.5,4.3,1.9
		c1.2,0.3,2.4,0.5,3.6,0.6c1.7,0.1,3.4,0,5.1-0.3c0.4-0.1,0.8-0.1,1.2-0.2c0,0,0.1,0,0.1,0c0,0-0.1,0-0.1,0.1c0,0,0,0,0,0
		c-0.5,0.1-0.9,0.3-1.4,0.4c-1.7,0.5-3.4,0.8-5.1,0.9c-1.3,0.1-2.7,0-3.9-0.4c0,0,0,0-0.1,0c0,0,0,0,0,0c0,0,0,0,0,0
		c0,0,0.1,0,0.1,0.1c0.9,0.4,1.7,0.8,2.7,1c1.6,0.5,3.3,0.6,4.9,0.6c1,0,2-0.2,3-0.4c0.8-0.2,1.7-0.2,2.6-0.1
		c0.7,0.1,1.3,0.2,1.9,0.4l-4.1-8C21.5,31.5,20.4,30.7,19.1,30.5C19.1,30.5,19.1,30.5,19.1,30.5z"/>
	<path class="st2" d="M41.7,32.9c1.4,0,2.8-0.1,4.2-0.3c1.6-0.2,3.1-0.4,4.6-0.8c1.3-0.3,2.5-0.7,3.6-1.3c1-0.5,1.9-1.2,2.6-2
		c0.4-0.5,0.7-1,1-1.5c0.4-0.9,0.5-1.9,0.4-2.9c0-0.2-0.1-0.3-0.1-0.5c0,0,0,0,0-0.1c0,0,0,0,0,0.1c0,0.4,0,0.7-0.1,1
		c-0.2,0.6-0.5,1.1-1,1.6c-0.5,0.5-1.2,0.9-1.8,1.2c-1,0.5-2,0.8-3.1,1.1c-1.2,0.3-2.4,0.6-3.6,0.8c-1.2,0.2-2.5,0.4-3.7,0.6
		c-1.2,0.2-2.4,0.4-3.7,0.6c0,0,0,0,0,0c-1.3,0.2-2.4,1-3,2.2l-4.1,8c0.6-0.2,1.2-0.4,1.9-0.4c0.9-0.1,1.7,0,2.6,0.1
		c1,0.2,2,0.3,3,0.4c1.7,0.1,3.3-0.1,4.9-0.6c0.9-0.3,1.8-0.6,2.7-1c0,0,0.1,0,0.1-0.1c0,0,0,0,0,0c0,0,0,0,0,0c0,0,0,0-0.1,0
		c-1.3,0.4-2.6,0.4-3.9,0.4c-1.8-0.1-3.5-0.4-5.1-0.9c-0.5-0.1-0.9-0.3-1.4-0.4c0,0,0,0,0,0c0,0-0.1,0-0.1-0.1c0,0,0.1,0,0.1,0
		c0.4,0.1,0.8,0.1,1.2,0.2c1.7,0.3,3.4,0.4,5.1,0.3c1.2-0.1,2.4-0.3,3.6-0.6c1.5-0.4,3-1,4.3-1.9c0.8-0.6,1.6-1.2,2.2-2
		c0.1-0.1,0.1-0.2,0.2-0.2c-0.1,0.1-0.2,0.1-0.2,0.2c-1.1,0.7-2.2,1.3-3.5,1.7c-1.6,0.5-3.3,0.8-5,0.8c-2.2,0.1-4.3-0.2-6.4-0.7
		c0,0,0,0-0.1,0c0,0,0,0,0,0c0,0,0,0,0,0c0,0,0,0,0.1,0c1.2,0.1,2.5,0.2,3.8,0.2c1.4,0,2.7-0.1,4.1-0.4c1.4-0.3,2.7-0.6,4-1.2
		c1.2-0.5,2.4-1.2,3.4-2c0.6-0.5,1.1-1,1.6-1.5c0.3-0.3,0.5-0.7,0.8-1.1c0,0,0-0.1,0-0.1c0,0-0.1,0-0.1,0c-0.4,0.3-0.8,0.6-1.2,0.9
		c-1,0.7-2.1,1.2-3.2,1.7c-0.9,0.4-1.9,0.6-2.9,0.8c-1,0.2-2,0.3-2.9,0.4c-1.6,0.1-3.2,0.1-4.7-0.1c-0.5-0.1-1.1-0.1-1.6-0.2
		c0,0,0,0-0.1,0c0,0,0,0,0.1,0C41.1,32.9,41.4,32.9,41.7,32.9z"/>
	<path class="st3" d="M32.1,29.1L30,34.3l-2.1-5.1c-1.6-3.9-5.3-6.4-9.5-6.4h0l4.3,8.3l4.7,9.3l0.3,0.7c0.9,1.8,3.5,1.8,4.5,0
		l0.3-0.6l4.7-9.3l4.3-8.3h0C37.4,22.7,33.6,25.3,32.1,29.1z"/>
</g>
</svg>
